<?xml version="1.0" encoding="utf-8"?>
<!-- Generator: Adobe Illustrator 16.0.0, SVG Export Plug-In . SVG Version: 6.00 Build 0)  -->
<!DOCTYPE svg PUBLIC "-//W3C//DTD SVG 1.1//EN" "http://www.w3.org/Graphics/SVG/1.1/DTD/svg11.dtd">
<svg version="1.1" id="Layer_1" xmlns="http://www.w3.org/2000/svg" xmlns:xlink="http://www.w3.org/1999/xlink" x="0px" y="0px"
	 width="70px" height="70px" viewBox="0 0 70 70" enable-background="new 0 0 70 70" xml:space="preserve">
<path fill="#BABABA" d="M63.859,14.15V6.88L43.02,3.329l-2.032,11.778l8.245,1.409l-1.47,6.762c-0.188,0.865-0.395,1.691-0.62,2.48
	c-0.226,0.789-0.451,1.503-0.678,2.141c-0.642,1.767-1.299,3.204-1.977,4.312s-1.507,2.113-2.485,3.015L31.216,22.828
	c-1.544-1.765-2.871-3.39-3.981-4.875c-1.11-1.484-2.108-2.968-2.993-4.451c-0.885-1.484-1.704-3.053-2.457-4.706
	c-0.753-1.653-1.544-3.532-2.372-5.636c-2.07,0.677-4.283,1.447-6.636,2.311C10.423,6.336,8.21,7.199,6.141,8.063
	c0.677,1.69,1.327,3.241,1.948,4.649c0.621,1.409,1.261,2.743,1.92,4.001s1.374,2.471,2.146,3.635
	c0.771,1.165,1.646,2.367,2.626,3.606c-1.619,1.691-2.937,3.373-3.953,5.044c-1.018,1.671-1.827,3.4-2.429,5.184
	c-0.603,1.785-1.036,3.672-1.299,5.664c-0.264,1.991-0.415,4.133-0.452,6.424c-0.076,2.255-0.141,4.293-0.197,6.114
	c-0.058,1.822-0.095,3.476-0.113,4.959c-0.02,1.484-0.048,2.838-0.085,4.058c-0.038,1.222-0.057,2.358-0.057,3.41h14.401
	c0-0.978,0.01-2.001,0.028-3.072c0.02-1.07,0.048-2.113,0.086-3.127c0.036-1.014,0.064-1.963,0.084-2.846
	c0.019-0.882,0.028-1.624,0.028-2.227c0.037-1.728,0.075-3.541,0.113-5.438c0.036-1.896,0.131-3.749,0.282-5.551
	c0.149-1.804,0.386-3.467,0.706-4.987c0.319-1.522,0.762-2.771,1.327-3.749l29.424,33.869l9.885-8.79L50.079,44.581
	c1.619-1.24,3.013-2.497,4.179-3.775c1.167-1.277,2.184-2.668,3.051-4.171c0.865-1.501,1.619-3.174,2.26-5.016
	c0.639-1.84,1.223-3.925,1.75-6.255L63.859,14.15z"/>
</svg>
