<?xml version="1.0" encoding="utf-8"?>
<!-- Generator: Adobe Illustrator 16.0.0, SVG Export Plug-In . SVG Version: 6.00 Build 0)  -->
<!DOCTYPE svg PUBLIC "-//W3C//DTD SVG 1.1//EN" "http://www.w3.org/Graphics/SVG/1.1/DTD/svg11.dtd">
<svg version="1.1" id="Layer_1" xmlns="http://www.w3.org/2000/svg" xmlns:xlink="http://www.w3.org/1999/xlink" x="0px" y="0px"
	 width="70px" height="70px" viewBox="0 0 70 70" enable-background="new 0 0 70 70" xml:space="preserve">
<g id="miu">
	<g id="Artboard-1" transform="translate(-755.000000, -119.000000)">
		<g id="slice" transform="translate(215.000000, 119.000000)">
		</g>
		<path id="circle-info-more-information-detail-glyph" fill="#BABABA" d="M755.375,154c0-19.123,15.502-34.625,34.625-34.625
			c19.125,0,34.625,15.502,34.625,34.625c0,19.125-15.5,34.625-34.625,34.625C770.877,188.625,755.375,173.125,755.375,154z
			 M790.714,142.707c2.426,0,4.393-1.966,4.393-4.391s-1.967-4.392-4.393-4.392c-2.422,0-4.39,1.967-4.39,4.392
			S788.292,142.707,790.714,142.707z M786.989,147.473v27.098h7.529v-27.098H786.989z"/>
	</g>
</g>
</svg>
