<?xml version="1.0" encoding="utf-8"?>
<!-- Generator: Adobe Illustrator 16.0.0, SVG Export Plug-In . SVG Version: 6.00 Build 0)  -->
<!DOCTYPE svg PUBLIC "-//W3C//DTD SVG 1.1//EN" "http://www.w3.org/Graphics/SVG/1.1/DTD/svg11.dtd">
<svg version="1.1" id="Layer_1" xmlns="http://www.w3.org/2000/svg" xmlns:xlink="http://www.w3.org/1999/xlink" x="0px" y="0px"
	 width="70px" height="70px" viewBox="0 0 70 70" enable-background="new 0 0 70 70" xml:space="preserve">
<path fill="#16204C" d="M64.036,35c-2.949,0-4.349,2.08-4.84,4.271C57.43,47.17,49.921,59.196,35,59.196
	C21.635,59.196,10.803,48.36,10.803,35c0-13.362,10.832-24.197,24.197-24.197c5.421,0,10.392,1.822,14.42,4.84h-4.741
	c-2.67,0-4.84,2.167-4.84,4.84c0,2.67,2.17,4.839,4.84,4.839h14.518c2.67,0,4.84-2.169,4.84-4.839V5.964
	c0-2.672-2.17-4.839-4.84-4.839s-4.84,2.167-4.84,4.839v1.253C48.869,3.38,42.203,1.125,35,1.125
	C16.292,1.125,1.125,16.292,1.125,35c0,18.71,15.167,33.875,33.875,33.875c24.145,0,33.875-22.987,33.875-28.733
	C68.875,36.625,66.304,35,64.036,35z"/>
</svg>
