<?xml version="1.0" encoding="utf-8"?>
<!-- Generator: Adobe Illustrator 16.0.0, SVG Export Plug-In . SVG Version: 6.00 Build 0)  -->
<!DOCTYPE svg PUBLIC "-//W3C//DTD SVG 1.1//EN" "http://www.w3.org/Graphics/SVG/1.1/DTD/svg11.dtd">
<svg version="1.1" id="Layer_1" xmlns="http://www.w3.org/2000/svg" xmlns:xlink="http://www.w3.org/1999/xlink" x="0px" y="0px"
	 width="61px" height="61.01px" viewBox="0 0 61 61.01" enable-background="new 0 0 61 61.01" xml:space="preserve">
<g>
	<defs>
		<rect id="SVGID_1_" width="61.001" height="61.01"/>
	</defs>
	<clipPath id="SVGID_2_">
		<use xlink:href="#SVGID_1_"  overflow="visible"/>
	</clipPath>
	<path clip-path="url(#SVGID_2_)" fill="#FFFFFF" d="M60.763,54.842L43.174,37.26c2.678-3.842,4.249-8.513,4.249-13.546
		c0-13.096-10.615-23.712-23.711-23.712C10.617,0.001,0,10.618,0,23.714c0,13.094,10.617,23.709,23.712,23.709
		c5.034,0,9.704-1.568,13.545-4.244l0.003-0.003l17.582,17.587c0.326,0.326,0.844,0.335,1.181,0l4.74-4.74
		C61.089,55.7,61.07,55.155,60.763,54.842 M23.712,41.845c-10.014,0-18.133-8.118-18.133-18.131
		c0-10.016,8.119-18.133,18.133-18.133c10.015,0,18.133,8.117,18.133,18.133C41.845,33.727,33.727,41.845,23.712,41.845"/>
</g>
</svg>
